<svg version="1.1" xmlns="http://www.w3.org/2000/svg" xmlns:xlink="http://www.w3.org/1999/xlink" x="0px" y="0px" viewBox="0 0 595.28 467.72" xml:space="preserve">
    <path d="M498.265,374.175L357.953,233.863L498.275,93.541L518.316,73.5c16.605-16.604,16.604-43.51,0-60.115 s-43.531-16.604-60.125-0.011L438.15,33.415L297.828,173.738L157.504,33.415l-20.041-20.041c-16.604-16.605-43.51-16.604-60.115,0 s-16.604,43.531-0.011,60.125L97.379,93.54l140.323,140.323L97.39,374.175l-20.04,20.041c-16.605,16.605-16.616,43.521-0.001,60.137 c16.604,16.604,43.521,16.594,60.126-0.012l20.041-20.039l140.312-140.312L438.14,434.3l20.041,20.041 c16.604,16.605,43.521,16.615,60.136,0c16.604-16.604,16.595-43.52-0.011-60.125L498.265,374.175z"/>
</svg>