<svg version="1.1" xmlns="http://www.w3.org/2000/svg" xmlns:xlink="http://www.w3.org/1999/xlink" x="0px" y="0px" viewBox="106.925 6.163 41.27 32.386" xml:space="preserve">
<path d="M145.248,6.163h-35.375c-1.628,0-2.948,1.319-2.948,2.948c0,1.628,1.32,2.947,2.948,2.947h35.375 c1.628,0,2.947-1.319,2.947-2.947C148.195,7.483,146.875,6.163,145.248,6.163z"/>
<path d="M145.248,19.408h-35.375c-1.628,0-2.948,1.319-2.948,2.948c0,1.628,1.32,2.947,2.948,2.947h35.375 c1.628,0,2.947-1.319,2.947-2.947C148.195,20.728,146.875,19.408,145.248,19.408z"/>
<path d="M148.195,35.601c0-1.628-1.319-2.947-2.947-2.947h-35.375c-1.628,0-2.948,1.319-2.948,2.947 c0,1.629,1.32,2.948,2.948,2.948h35.375C146.875,38.549,148.195,37.23,148.195,35.601z"/>
</svg>
