<svg viewBox="0 0 202 58" version="1.1" xmlns="http://www.w3.org/2000/svg" xmlns:xlink="http://www.w3.org/1999/xlink">
    <path fill="white" transform="translate(-539.000000, -73.000000)" d="M663.754332,105.002616 C659.080118,105.002616 656.055626,102.34473 654.13095,99.4118894 L654.13095,104.452708 L651.885494,104.452708 L651.885494,73 L654.13095,73 L654.13095,86.3057598 C656.147278,83.2354427 659.125943,80.5317306 663.754332,80.5317306 C669.390884,80.5317306 675.119088,85.0684678 675.119088,92.675522 C675.119088,100.374228 669.390884,105.002616 663.754332,105.002616 Z M663.525204,102.848811 C668.611848,102.848811 672.690329,99.1369356 672.690329,92.8588246 L672.690329,92.7671733 C672.690329,86.6265391 668.428546,82.6855351 663.525204,82.6855351 C658.667687,82.6855351 653.993473,86.764016 653.993473,92.7213477 L653.993473,92.8129989 C653.993473,98.8161562 658.667687,102.848811 663.525204,102.848811 Z M687.62609,105.002616 C681.714584,105.002616 678.277661,100.969961 678.277661,95.3792341 L678.277661,81.0816382 L680.523117,81.0816382 L680.523117,94.9668034 C680.523117,99.7784944 683.226829,102.940463 687.946869,102.940463 C692.529432,102.940463 696.058005,99.457715 696.058005,94.6001984 L696.058005,81.0816382 L698.303461,81.0816382 L698.303461,104.452708 L696.058005,104.452708 L696.058005,100.099274 C694.499934,102.848811 691.887873,105.002616 687.62609,105.002616 Z M703,76.0703171 L703,73 L705.795363,73 L705.795363,76.0703171 L703,76.0703171 Z M703.470442,104.452708 L703.470442,81.0816382 L705.715898,81.0816382 L705.715898,104.452708 L703.470442,104.452708 Z M710.920784,104.452708 L710.920784,73 L713.16624,73 L713.16624,104.452708 L710.920784,104.452708 Z M728.468605,105.002616 C722.832053,105.002616 717.103849,100.465879 717.103849,92.8588246 C717.103849,85.1601191 722.832053,80.5317306 728.468605,80.5317306 C733.142819,80.5317306 736.16731,83.189617 738.091987,86.1224572 L738.091987,73 L740.337442,73 L740.337442,104.452708 L738.091987,104.452708 L738.091987,99.2285868 C736.075659,102.298904 733.096993,105.002616 728.468605,105.002616 Z M728.697733,102.848811 C733.55525,102.848811 738.229464,98.7703306 738.229464,92.8129989 L738.229464,92.7213477 C738.229464,86.7181904 733.55525,82.6855351 728.697733,82.6855351 C723.611088,82.6855351 719.532607,86.397411 719.532607,92.675522 L719.532607,92.7671733 C719.532607,98.9078075 723.794391,102.848811 728.697733,102.848811 Z M590.656783,104.042571 L583.768837,104.042571 L583.768837,101.641159 L583.68585,101.641159 C582.44104,103.922501 579.453498,104.803018 576.963879,104.803018 C569.868465,104.803018 565.387151,99.519911 565.387151,92.9160267 C565.387151,86.432213 570.03444,81.0690585 576.963879,81.0690585 C579.494991,81.0690585 582.31656,81.9895999 583.68585,84.1908947 L583.768837,84.1908947 L583.768837,81.8295058 L590.656783,81.8295058 L590.656783,104.042571 Z M583.768837,92.9160267 C583.768837,89.6741199 581.320712,87.2727074 577.959726,87.2727074 C574.598741,87.2727074 572.275097,89.834214 572.275097,92.9960738 C572.275097,96.0778865 574.764715,98.5993696 578.00122,98.5993696 C581.362206,98.5993696 583.768837,96.11791 583.768837,92.9160267 Z M618.82088,93.156168 C618.82088,99.3598169 614.339566,104.803018 607.617595,104.803018 C604.879014,104.803018 602.55537,104.002548 600.688155,102.041394 L600.688155,111.446926 L593.80021,111.446926 L593.80021,81.8295058 L600.273219,81.8295058 L600.273219,84.2709418 L600.3977,84.2709418 C602.181927,82.1096706 604.754533,81.0690585 607.576101,81.0690585 C614.713009,81.0690585 618.82088,86.7123778 618.82088,93.156168 Z M611.932934,92.9560503 C611.932934,89.7941905 609.484809,87.2727074 606.165317,87.2727074 C602.845825,87.2727074 600.3977,89.7941905 600.3977,92.9560503 C600.3977,96.0778865 602.887319,98.5993696 606.165317,98.5993696 C609.443315,98.5993696 611.932934,96.0778865 611.932934,92.9560503 Z M645.411059,93.156168 C645.411059,99.3598169 640.929745,104.803018 634.207774,104.803018 C631.469193,104.803018 629.145549,104.002548 627.278335,102.041394 L627.278335,111.446926 L620.390389,111.446926 L620.390389,81.8295058 L626.863398,81.8295058 L626.863398,84.2709418 L626.987879,84.2709418 C628.772106,82.1096706 631.344712,81.0690585 634.16628,81.0690585 C641.303188,81.0690585 645.411059,86.7123778 645.411059,93.156168 Z M638.523113,92.9560503 C638.523113,89.7941905 636.074988,87.2727074 632.755496,87.2727074 C629.436004,87.2727074 626.987879,89.7941905 626.987879,92.9560503 C626.987879,96.0778865 629.477498,98.5993696 632.755496,98.5993696 C636.033495,98.5993696 638.523113,96.0778865 638.523113,92.9560503 Z M645.734312,104.04792 L645.734312,101.406271 L648.472893,101.406271 L648.472893,104.04792 L645.734312,104.04792 Z M557.358621,81.4623354 L561.677181,77.2967807 L566.375828,81.8289561 L562.047531,86.0039027 C564.672039,90.5241112 563.991712,96.3486909 560.006551,100.192659 C559.283976,100.889633 558.493897,101.481808 557.656613,101.969184 L559.125344,107.25636 C564.496001,107.324101 569.385352,110.804697 570.844022,116.055655 C572.602972,122.387566 568.707313,128.895985 562.142824,130.592615 C555.578336,132.289245 548.830856,128.531608 547.071907,122.199697 C545.608611,116.932087 548.058769,111.542319 552.703309,108.902422 L551.249509,103.668998 C548.118935,103.65538 544.992722,102.4966 542.604154,100.192659 C537.798615,95.5573791 537.798615,88.0421049 542.604154,83.4068246 C546.601953,79.5506662 552.666158,78.9025032 557.358621,81.4623354 Z M560.423,124.401548 C563.442665,123.621098 565.234668,120.627226 564.425551,117.714547 C563.616434,114.801868 560.512594,113.073355 557.492929,113.853805 C554.473264,114.634255 552.681261,117.628127 553.490378,120.540806 C554.299495,123.453485 557.403335,125.181998 560.423,124.401548 Z M547.302801,95.660484 C549.513349,97.7927129 553.097356,97.7927129 555.307904,95.660484 C557.518452,93.5282551 557.518452,90.0712289 555.307904,87.939 C553.097356,85.8067711 549.513349,85.8067711 547.302801,87.939 C545.092253,90.0712289 545.092253,93.5282551 547.302801,95.660484 Z"></path>
</svg>