<svg viewBox="0 0 20 20" version="1.1" xmlns="http://www.w3.org/2000/svg" xmlns:xlink="http://www.w3.org/1999/xlink">
    <path fill="white" transform="translate(-210.000000, -10.000000)" d="M224,19 L221,19 L221,16 C221,15.4477153 220.552285,15 220,15 C219.447715,15 219,15.4477153 219,16 L219,19 L216,19 C215.447715,19 215,19.4477153 215,20 C215,20.5522847 215.447715,21 216,21 L219,21 L219,24 C219,24.5522847 219.447715,25 220,25 C220.552285,25 221,24.5522847 221,24 L221,21 L224,21 C224.552285,21 225,20.5522847 225,20 C225,19.4477153 224.552285,19 224,19 Z M220,11.6285714 C224.628571,11.6285714 228.371429,15.3714286 228.371429,20 C228.371429,24.6285714 224.628571,28.3714286 220,28.3714286 C215.371429,28.3714286 211.628571,24.6285714 211.628571,20 C211.628571,15.3714286 215.371429,11.6285714 220,11.6285714 Z M210,20 C210,25.5142857 214.485714,30 220,30 C225.514286,30 230,25.5142857 230,20 C230,14.4857143 225.514286,10 220,10 C214.485714,10 210,14.4857143 210,20 Z"></path>
</svg>