<svg viewBox="0 0 20 20" version="1.1" xmlns="http://www.w3.org/2000/svg" xmlns:xlink="http://www.w3.org/1999/xlink">
    <g transform="translate(-27.000000, -1.000000)">
        <path fill="rgb(0, 182, 105)" d="M40.1818182,5.21055765 L39.7338871,5.21055765 C38.7563027,5.21055765 37.9599531,5.97294256 37.9599531,6.90907781 L37.9599531,14.9172858 C37.9599531,16.8452442 36.3225662,18.4131818 34.3088402,18.4131818 L33.8181818,18.4131818 L33.8181818,19.8716559 C33.8181818,20.4937402 33.3122657,21 32.6898377,21 L28.1283441,21 C27.5062598,21 27,20.4937402 27,19.8716559 L27,15.3101623 C27,14.688078 27.5059161,14.1818182 28.1283441,14.1818182 L32.6898377,14.1818182 C33.3122657,14.1818182 33.8181818,14.688078 33.8181818,15.310506 L33.8181818,16.615806 L34.3088402,16.615806 C35.2864246,16.615806 36.0827742,15.8534211 36.0827742,14.9172858 L36.0827742,6.90907781 C36.0827742,4.98126428 37.7204791,3.41318182 39.7338871,3.41318182 L40.1818182,3.41318182 L40.1818182,2.12834413 C40.1818182,1.5062598 40.6877343,1 41.3101623,1 L45.8716559,1 C46.4937402,1 47,1.5059161 47,2.12834413 L47,6.68983769 C47,7.31192202 46.4940839,7.81818182 45.8716559,7.81818182 L41.3101623,7.81818182 C40.688078,7.81818182 40.1818182,7.31226572 40.1818182,6.68983769 L40.1818182,5.21055765 Z"></path>
    </g>
</svg>