<svg viewBox="0 0 10 10" version="1.1" xmlns="http://www.w3.org/2000/svg" xmlns:xlink="http://www.w3.org/1999/xlink">
    <path fill="rgb(0, 182, 105)" d="M6.5909091,2.10527883 L6.36694355,2.10527883 C5.87815135,2.10527883 5.47997655,2.48647128 5.47997655,2.95453891 L5.47997655,6.9586429 C5.47997655,7.9226221 4.6612831,8.7065909 3.6544201,8.7065909 L3.4090909,8.7065909 L3.4090909,9.43582795 C3.4090909,9.7468701 3.15613285,10 2.84491885,10 L0.56417205,10 C0.2531299,10 0,9.7468701 0,9.43582795 L0,7.15508115 C0,6.844039 0.25295805,6.5909091 0.56417205,6.5909091 L2.84491885,6.5909091 C3.15613285,6.5909091 3.4090909,6.844039 3.4090909,7.155253 L3.4090909,7.807903 L3.6544201,7.807903 C4.1432123,7.807903 4.5413871,7.42671055 4.5413871,6.9586429 L4.5413871,2.95453891 C4.5413871,1.99063214 5.36023955,1.20659091 6.36694355,1.20659091 L6.5909091,1.20659091 L6.5909091,0.564172065 C6.5909091,0.2531299 6.84386715,0 7.15508115,0 L9.43582795,0 C9.7468701,0 10,0.25295805 10,0.564172065 L10,2.84491885 C10,3.15596101 9.74704195,3.40909091 9.43582795,3.40909091 L7.15508115,3.40909091 C6.844039,3.40909091 6.5909091,3.15613286 6.5909091,2.84491885 L6.5909091,2.10527883 Z"></path>
</svg>