<svg viewBox="0 0 33 54" xmlns="http://www.w3.org/2000/svg" xmlns:xlink="http://www.w3.org/1999/xlink">
    <path fill="rgb(93, 60, 246)" d="M18.358621,4.4623354 L22.677181,0.2967807 L27.375828,4.8289561 L23.047531,9.0039027 C25.672039,13.5241112 24.991712,19.3486909 21.006551,23.192659 C20.283976,23.889633 19.493897,24.481808 18.656613,24.969184 L20.125344,30.25636 C25.496001,30.324101 30.385352,33.804697 31.844022,39.055655 C33.602972,45.387566 29.707313,51.895985 23.142824,53.592615 C16.578336,55.289245 9.830856,51.531608 8.071907,45.199697 C6.608611,39.932087 9.058769,34.542319 13.703309,31.902422 L12.249509,26.668998 C9.118935,26.65538 5.992722,25.4966 3.604154,23.192659 C-1.201385,18.5573791 -1.201385,11.0421049 3.604154,6.4068246 C7.601953,2.5506662 13.666158,1.9025032 18.358621,4.4623354 Z M21.423,47.401548 C24.442665,46.621098 26.234668,43.627226 25.425551,40.714547 C24.616434,37.801868 21.512594,36.073355 18.492929,36.853805 C15.473264,37.634255 13.681261,40.628127 14.490378,43.540806 C15.299495,46.453485 18.403335,48.181998 21.423,47.401548 Z M8.302801,18.660484 C10.513349,20.7927129 14.097356,20.7927129 16.307904,18.660484 C18.518452,16.5282551 18.518452,13.0712289 16.307904,10.939 C14.097356,8.8067711 10.513349,8.8067711 8.302801,10.939 C6.092253,13.0712289 6.092253,16.5282551 8.302801,18.660484 Z"></path>
</svg>