<svg viewBox="0 0 64 64" xmlns="http://www.w3.org/2000/svg" xmlns:xlink="http://www.w3.org/1999/xlink">
    <g transform="translate(-74.000000, 0.000000)">
        <path fill="rgb(93, 60, 246)" transform="translate(106.000000, 32.000000) scale(-1, 1) translate(-106.000000, -32.000000)" d="M110,36 L110,44.0012257 C110,46.209882 108.208,48 106,48 C103.790667,48 102,46.209882 102,44.0012257 L102,36 L93.9987743,36 C91.790118,36 90,34.2093333 90,32 C90,29.7906667 91.790118,28 93.9987743,28 L102,28 L102,19.9987743 C102,17.790118 103.790667,16 106,16 C108.209333,16 110,17.790118 110,19.9987743 L110,28 L118.001226,28 C120.209882,28 122,29.792 122,32 C122,34.2093333 120.209882,36 118.001226,36 L110,36 Z M106,0 C88.327,0 74,14.327 74,32 C74,49.673 88.327,64 106,64 C106.003,64 106.005,64 106.007,64 L135,64 C136.657,64 138,62.657 138,61 L138,32.002 C138,32.001 138,32.001 138,32 C138,14.327 123.673,0 106,0 Z M106.003846,57 C92.1932692,57 81,45.8076923 81,32 C81,18.1932692 92.1932692,7 106,7 C119.807692,7 131,18.1932692 131,32.0009615 C131,45.8067308 119.808654,56.9980769 106.003846,57 Z"></path>
    </g>
</svg>