<svg viewBox="0 0 64 64" xmlns="http://www.w3.org/2000/svg" xmlns:xlink="http://www.w3.org/1999/xlink">
    <path fill="rgb(93, 60, 246)" d="M44.0012257,28 L19.9987743,28 C17.790118,28 16,29.7906667 16,32 C16,34.2093333 17.790118,36 19.9987743,36 L44.0012257,36 C46.209882,36 48,34.2093333 48,32 C48,29.792 46.209882,28 44.0012257,28 Z M32,0 C14.327,0 0,14.327 0,32 C0,49.673 14.327,64 32,64 C32.003,64 32.005,64 32.007,64 L61,64 C62.657,64 64,62.657 64,61 L64,32.002 C64,32.001 64,32.001 64,32 C64,14.327 49.673,0 32,0 Z M32.0038462,57 C18.1932692,57 7,45.8076923 7,32 C7,18.1932692 18.1932692,7 32,7 C45.8076923,7 57,18.1932692 57,32.0009615 C57,45.8067308 45.8086538,56.9980769 32.0038462,57 Z"></path>
</svg>